# xmcd
#
# Track frame offsets:
#	150
#	14190
#	29756
#	59351
#	75871
#	90702
#	117900
#	133111
#	148166
#	163432
#	181549
#	194039
#	214094
#	235630
#	252569
#	271588
#
# Disc length: 3824
#
# Revision: 2
# Processed by: cddbd v1.5.1PL0 Copyright (c) Steve Scherf et al.
# Submitted via: FreeRIP 2.30 
# Normalized: r0:DSETVAR1,TDELIM( - );r1:TSWAP
#
DISCID=ea0eee10
DTITLE=Various Artist - The Magnificent Harmony Collection [Disc 2]
DYEAR=2002
DGENRE=Soul
TTITLE0=The Winstons - Color Him Father
TTITLE1=Harold Melvin and The Blue Notes - If You Don't Know Me By Now
TTITLE2=The Commodores - Sweet Love
TTITLE3=Tavares - She's Gone
TTITLE4=The Stylistics - Betcha By Golly, Wow
TTITLE5=Enchantment - It's You That I Need
TTITLE6=The Cornelius Brothers and Sister Rose - Too Late To Turn Back Now
TTITLE7=The Friends Of Distinction - Love or Let Me Be Lonely
TTITLE8=The Independents - Leaving Me
TTITLE9=War - Summer
TTITLE10=The Intruders - Love Is Live A Baseball Game
TTITLE11=The New Birth - Mr. Dream Merchant
TTITLE12=GQ - I Do Love You
TTITLE13=The Moments - Love on a Two-Way Street
TTITLE14=Blue Magic - Sideshow
TTITLE15=The Persuaders - Thin Line Between Love and Hate
EXTD=
EXTT0=
EXTT1=
EXTT2=
EXTT3=
EXTT4=
EXTT5=
EXTT6=
EXTT7=
EXTT8=
EXTT9=
EXTT10=
EXTT11=
EXTT12=
EXTT13=
EXTT14=
EXTT15=
PLAYORDER=
